<svg width="770" height="116" viewBox="0 0 770 116" fill="none" xmlns="http://www.w3.org/2000/svg">
<path d="M24.9522 69.7533C24.9523 56.1128 36.0101 45.0549 49.6506 45.0549H57.42V62.7315H67.0543C76.5895 62.7315 84.3193 55.0016 84.3194 45.4665C84.3194 35.9313 76.5895 28.2014 67.0543 28.2014H57.42V41.9995H52.3457C51.0429 41.9995 49.9867 40.9433 49.9867 39.6405V20.7681H67.0543C80.6948 20.7681 91.7527 31.826 91.7527 45.4665C91.7527 59.1069 80.6948 70.1648 67.0543 70.1648H49.9867V52.4882H49.6506C40.1154 52.4882 32.3856 60.2181 32.3855 69.7533C32.3855 79.2884 40.1154 87.0183 49.6506 87.0183H61.4307V75.5785C61.4307 74.2757 62.4869 73.2195 63.7897 73.2195H68.864V94.4517H49.6506C36.0101 94.4517 24.9522 83.3937 24.9522 69.7533Z" fill="white"/>
<circle cx="57.98" cy="57.98" r="55.0312" stroke="white" stroke-width="5.89754"/>
<path d="M185.235 64.8231V87.8576C182.347 89.9838 179.263 91.5457 175.981 92.5432C172.726 93.5145 169.235 94.0001 165.508 94.0001C160.861 94.0001 156.648 93.2782 152.868 91.8345C149.114 90.3907 145.899 88.3826 143.221 85.8101C140.57 83.2376 138.523 80.1663 137.079 76.5963C135.635 73.0262 134.913 69.1281 134.913 64.9018C134.913 60.623 135.609 56.6986 137 53.1286C138.391 49.5586 140.36 46.4873 142.906 43.9148C145.479 41.3423 148.589 39.3473 152.238 37.9298C155.887 36.5123 159.982 35.8035 164.523 35.8035C166.833 35.8035 168.986 35.9873 170.981 36.3548C173.002 36.7223 174.866 37.2341 176.572 37.8904C178.305 38.5204 179.88 39.2948 181.297 40.2135C182.715 41.1323 184.014 42.1429 185.195 43.2454L182.163 48.0492C181.691 48.8105 181.074 49.283 180.313 49.4667C179.552 49.6242 178.725 49.4273 177.832 48.8761C176.966 48.3773 176.1 47.8786 175.233 47.3798C174.367 46.8811 173.396 46.4479 172.32 46.0804C171.27 45.7129 170.075 45.4111 168.736 45.1748C167.424 44.9386 165.901 44.8204 164.169 44.8204C161.36 44.8204 158.814 45.2929 156.53 46.2379C154.273 47.183 152.343 48.5348 150.742 50.2936C149.141 52.0524 147.907 54.1655 147.041 56.633C146.174 59.1005 145.741 61.8568 145.741 64.9018C145.741 68.1568 146.201 71.0706 147.119 73.6431C148.064 76.1894 149.377 78.355 151.057 80.14C152.763 81.8988 154.811 83.2507 157.199 84.1957C159.588 85.1144 162.253 85.5738 165.193 85.5738C167.293 85.5738 169.17 85.3507 170.823 84.9044C172.477 84.4582 174.091 83.8544 175.666 83.0932V72.7769H168.5C167.818 72.7769 167.28 72.5931 166.886 72.2256C166.518 71.8319 166.335 71.3594 166.335 70.8081V64.8231H185.235ZM222.625 71.8712L215.695 52.9317C215.354 52.0917 214.999 51.0942 214.632 49.9392C214.264 48.7842 213.897 47.5373 213.529 46.1986C213.188 47.5373 212.834 48.7973 212.466 49.9786C212.099 51.1336 211.744 52.1442 211.403 53.0105L204.513 71.8712H222.625ZM241.328 93.3701H233.138C232.22 93.3701 231.471 93.147 230.894 92.7007C230.316 92.2282 229.883 91.6507 229.595 90.9682L225.342 79.3525H201.756L197.504 90.9682C197.294 91.572 196.887 92.1232 196.283 92.622C195.679 93.1207 194.931 93.3701 194.039 93.3701H185.77L208.174 36.4335H218.963L241.328 93.3701ZM278.368 84.6288V93.3701H245.017V36.4335H255.609V84.6288H278.368ZM317.076 84.6288V93.3701H283.725V36.4335H294.317V84.6288H317.076ZM333.065 44.8598V60.6493H352.989V68.8H333.065V84.9044H358.344V93.3701H322.433V36.4335H358.344V44.8598H333.065ZM382.732 63.5237C384.727 63.5237 386.46 63.2743 387.93 62.7755C389.426 62.2768 390.647 61.5943 391.592 60.728C392.563 59.8355 393.285 58.7855 393.757 57.578C394.23 56.3705 394.466 55.0449 394.466 53.6011C394.466 50.7136 393.508 48.4955 391.592 46.9467C389.702 45.3979 386.801 44.6236 382.89 44.6236H376.117V63.5237H382.732ZM409.98 93.3701H400.412C398.601 93.3701 397.288 92.6614 396.474 91.2439L384.504 73.0131C384.058 72.3306 383.559 71.845 383.008 71.5562C382.483 71.2675 381.695 71.1231 380.645 71.1231H376.117V93.3701H365.525V36.4335H382.89C386.749 36.4335 390.056 36.8404 392.812 37.6541C395.595 38.4416 397.866 39.5573 399.624 41.001C401.409 42.4448 402.722 44.1773 403.562 46.1986C404.402 48.1936 404.822 50.3986 404.822 52.8136C404.822 54.7299 404.533 56.5411 403.956 58.2474C403.404 59.9537 402.591 61.5024 401.514 62.8937C400.464 64.2849 399.152 65.5056 397.577 66.5556C396.028 67.6056 394.256 68.4325 392.261 69.0362C392.944 69.43 393.574 69.9025 394.151 70.4537C394.729 70.9787 395.254 71.6087 395.726 72.3437L409.98 93.3701ZM435.761 71.32V93.3701H425.208V71.32L404.458 36.4335H413.79C414.708 36.4335 415.43 36.6566 415.955 37.1029C416.506 37.5491 416.966 38.1135 417.333 38.796L427.728 57.8143C428.332 58.943 428.857 60.0062 429.303 61.0037C429.776 62.0012 430.196 62.9987 430.563 63.9962C430.905 62.9987 431.298 62.0012 431.745 61.0037C432.191 60.0062 432.703 58.943 433.28 57.8143L443.636 38.796C443.925 38.2185 444.358 37.6804 444.935 37.1816C445.513 36.6829 446.248 36.4335 447.14 36.4335H456.512L435.761 71.32ZM524.441 64.9018C524.441 69.0756 523.745 72.9081 522.354 76.3994C520.963 79.8907 519.007 82.8963 516.487 85.4163C513.967 87.9363 510.935 89.892 507.391 91.2832C503.847 92.6745 499.91 93.3701 495.579 93.3701H473.883V36.4335H495.579C499.91 36.4335 503.847 37.1423 507.391 38.5598C510.935 39.951 513.967 41.9067 516.487 44.4267C519.007 46.9204 520.963 49.913 522.354 53.4042C523.745 56.8955 524.441 60.728 524.441 64.9018ZM513.573 64.9018C513.573 61.778 513.153 58.9824 512.313 56.5149C511.499 54.0211 510.305 51.9211 508.73 50.2148C507.181 48.4823 505.291 47.1567 503.06 46.2379C500.855 45.3192 498.361 44.8598 495.579 44.8598H484.514V84.9438H495.579C498.361 84.9438 500.855 84.4844 503.06 83.5657C505.291 82.6469 507.181 81.3344 508.73 79.6282C510.305 77.8956 511.499 75.7956 512.313 73.3281C513.153 70.8343 513.573 68.0256 513.573 64.9018ZM542.218 44.8598V60.6493H562.142V68.8H542.218V84.9044H567.497V93.3701H531.587V36.4335H567.497V44.8598H542.218ZM604.998 46.7892C604.683 47.3404 604.341 47.7473 603.974 48.0098C603.633 48.2461 603.199 48.3642 602.674 48.3642C602.123 48.3642 601.519 48.1673 600.863 47.7736C600.233 47.3536 599.472 46.8942 598.579 46.3954C597.687 45.8967 596.637 45.4504 595.429 45.0567C594.248 44.6367 592.844 44.4267 591.216 44.4267C589.746 44.4267 588.46 44.6104 587.357 44.9779C586.255 45.3192 585.323 45.8048 584.562 46.4348C583.827 47.0648 583.276 47.8261 582.908 48.7186C582.541 49.5848 582.357 50.543 582.357 51.593C582.357 52.9317 582.724 54.0474 583.459 54.9399C584.221 55.8324 585.218 56.5936 586.452 57.2236C587.686 57.8536 589.09 58.418 590.665 58.9168C592.24 59.4155 593.854 59.9537 595.508 60.5312C597.162 61.0824 598.776 61.7387 600.351 62.4999C601.926 63.2349 603.331 64.1799 604.564 65.3349C605.798 66.4637 606.783 67.855 607.518 69.5087C608.279 71.1625 608.659 73.1706 608.659 75.5331C608.659 78.1056 608.213 80.5207 607.321 82.7782C606.454 85.0094 605.168 86.9651 603.462 88.6451C601.782 90.2988 599.721 91.6114 597.28 92.5826C594.839 93.5276 592.043 94.0001 588.893 94.0001C587.082 94.0001 585.297 93.8164 583.538 93.4489C581.779 93.1076 580.086 92.6089 578.459 91.9526C576.857 91.2964 575.348 90.5088 573.931 89.5901C572.513 88.6713 571.253 87.6476 570.15 86.5188L573.261 81.4394C573.524 81.0719 573.865 80.77 574.285 80.5338C574.705 80.2713 575.151 80.14 575.624 80.14C576.28 80.14 576.989 80.4157 577.75 80.9669C578.511 81.4919 579.417 82.0825 580.467 82.7388C581.517 83.3951 582.737 83.9988 584.129 84.5501C585.546 85.0751 587.239 85.3376 589.208 85.3376C592.227 85.3376 594.563 84.6288 596.217 83.2113C597.871 81.7675 598.698 79.7069 598.698 77.0294C598.698 75.5331 598.317 74.3125 597.556 73.3675C596.821 72.4225 595.836 71.635 594.603 71.005C593.369 70.3487 591.964 69.7975 590.389 69.3512C588.814 68.905 587.213 68.4193 585.586 67.8943C583.958 67.3693 582.357 66.7393 580.782 66.0043C579.207 65.2693 577.802 64.3112 576.569 63.1299C575.335 61.9487 574.337 60.4787 573.576 58.7199C572.841 56.9349 572.474 54.743 572.474 52.1442C572.474 50.0705 572.881 48.0492 573.694 46.0804C574.534 44.1117 575.742 42.366 577.317 40.8435C578.892 39.321 580.834 38.1004 583.144 37.1816C585.454 36.2629 588.106 35.8035 591.098 35.8035C594.458 35.8035 597.556 36.3285 600.391 37.3785C603.226 38.4285 605.641 39.8985 607.636 41.7885L604.998 46.7892ZM626.325 93.3701H615.694V36.4335H626.325V93.3701ZM683.803 64.8231V87.8576C680.916 89.9838 677.832 91.5457 674.55 92.5432C671.295 93.5145 667.804 94.0001 664.076 94.0001C659.43 94.0001 655.217 93.2782 651.437 91.8345C647.683 90.3907 644.468 88.3826 641.79 85.8101C639.139 83.2376 637.091 80.1663 635.648 76.5963C634.204 73.0262 633.482 69.1281 633.482 64.9018C633.482 60.623 634.178 56.6986 635.569 53.1286C636.96 49.5586 638.929 46.4873 641.475 43.9148C644.048 41.3423 647.158 39.3473 650.807 37.9298C654.456 36.5123 658.551 35.8035 663.092 35.8035C665.402 35.8035 667.555 35.9873 669.55 36.3548C671.571 36.7223 673.435 37.2341 675.141 37.8904C676.873 38.5204 678.448 39.2948 679.866 40.2135C681.283 41.1323 682.583 42.1429 683.764 43.2454L680.732 48.0492C680.26 48.8105 679.643 49.283 678.882 49.4667C678.12 49.6242 677.293 49.4273 676.401 48.8761C675.535 48.3773 674.668 47.8786 673.802 47.3798C672.936 46.8811 671.965 46.4479 670.888 46.0804C669.838 45.7129 668.644 45.4111 667.305 45.1748C665.993 44.9386 664.47 44.8204 662.738 44.8204C659.929 44.8204 657.383 45.2929 655.099 46.2379C652.841 47.183 650.912 48.5348 649.311 50.2936C647.709 52.0524 646.476 54.1655 645.609 56.633C644.743 59.1005 644.31 61.8568 644.31 64.9018C644.31 68.1568 644.769 71.0706 645.688 73.6431C646.633 76.1894 647.946 78.355 649.626 80.14C651.332 81.8988 653.38 83.2507 655.768 84.1957C658.157 85.1144 660.821 85.5738 663.761 85.5738C665.861 85.5738 667.738 85.3507 669.392 84.9044C671.046 84.4582 672.66 83.8544 674.235 83.0932V72.7769H667.069C666.386 72.7769 665.848 72.5931 665.455 72.2256C665.087 71.8319 664.903 71.3594 664.903 70.8081V64.8231H683.803ZM739.802 36.4335V93.3701H734.368C733.528 93.3701 732.819 93.2389 732.242 92.9764C731.691 92.6876 731.152 92.2151 730.627 91.5589L700.899 53.6011C701.057 55.3336 701.135 56.9349 701.135 58.4049V93.3701H691.803V36.4335H697.355C697.802 36.4335 698.182 36.4598 698.497 36.5123C698.838 36.5385 699.127 36.6173 699.363 36.7485C699.626 36.8535 699.875 37.0241 700.112 37.2604C700.348 37.4704 700.61 37.7591 700.899 38.1266L730.746 76.2419C730.667 75.3231 730.601 74.4175 730.549 73.525C730.496 72.6325 730.47 71.8056 730.47 71.0444V36.4335H739.802Z" fill="white"/>
<path d="M750.858 36.632V37.8354H744.856V27.2558H746.281V36.632H750.858ZM757.797 28.4592H754.371V37.8354H752.946V28.4592H749.513V27.2558H757.797V28.4592ZM768.123 32.5493C768.123 33.3417 767.997 34.0628 767.746 34.7125C767.495 35.3622 767.141 35.9184 766.683 36.381C766.225 36.8437 765.674 37.203 765.029 37.4589C764.389 37.7099 763.681 37.8354 762.903 37.8354H758.953V27.2558H762.903C763.681 27.2558 764.389 27.3838 765.029 27.6397C765.674 27.8907 766.225 28.25 766.683 28.7176C767.141 29.1803 767.495 29.7365 767.746 30.3861C767.997 31.0358 768.123 31.7569 768.123 32.5493ZM766.653 32.5493C766.653 31.8996 766.565 31.3188 766.388 30.807C766.21 30.2951 765.959 29.862 765.635 29.5076C765.31 29.1532 764.916 28.8825 764.453 28.6955C763.991 28.5084 763.474 28.4149 762.903 28.4149H760.385V36.6763H762.903C763.474 36.6763 763.991 36.5828 764.453 36.3958C764.916 36.2088 765.31 35.9405 765.635 35.5911C765.959 35.2367 766.21 34.8036 766.388 34.2917C766.565 33.7798 766.653 33.199 766.653 32.5493Z" fill="white"/>
</svg>
