<svg width="243" height="26" viewBox="0 0 243 26" fill="none" xmlns="http://www.w3.org/2000/svg">
<path d="M45.7971 14.9486V22.6993C44.8255 23.4148 43.7877 23.9403 42.6836 24.276C41.5883 24.6028 40.4136 24.7662 39.1593 24.7662C37.5959 24.7662 36.1783 24.5233 34.9064 24.0375C33.6433 23.5517 32.5613 22.876 31.6603 22.0104C30.7682 21.1448 30.0793 20.1113 29.5935 18.9101C29.1077 17.7088 28.8648 16.3972 28.8648 14.9751C28.8648 13.5354 29.0988 12.2149 29.567 11.0136C30.0351 9.81236 30.6976 8.77893 31.5543 7.91332C32.42 7.04771 33.4666 6.37642 34.6944 5.89945C35.9221 5.42249 37.3 5.184 38.8281 5.184C39.6054 5.184 40.3297 5.24583 41.001 5.36949C41.6811 5.49315 42.3082 5.66539 42.8823 5.88621C43.4653 6.09819 43.9953 6.35876 44.4722 6.6679C44.9492 6.97705 45.3864 7.31711 45.7839 7.68809L44.7637 9.30448C44.6047 9.56063 44.3971 9.71961 44.141 9.78144C43.8848 9.83444 43.6066 9.76819 43.3063 9.58271C43.0148 9.41489 42.7233 9.24706 42.4319 9.07924C42.1404 8.91142 41.8136 8.76568 41.4514 8.64202C41.0981 8.51836 40.6962 8.41679 40.2458 8.33729C39.8041 8.2578 39.2918 8.21805 38.7089 8.21805C37.7638 8.21805 36.907 8.37704 36.1385 8.69502C35.3789 9.013 34.7297 9.46788 34.1909 10.0597C33.6521 10.6515 33.237 11.3625 32.9455 12.1928C32.654 13.0231 32.5083 13.9505 32.5083 14.9751C32.5083 16.0704 32.6629 17.0508 32.972 17.9164C33.29 18.7732 33.7316 19.5019 34.2969 20.1025C34.871 20.6943 35.56 21.1492 36.3638 21.4672C37.1676 21.7763 38.0641 21.9309 39.0533 21.9309C39.76 21.9309 40.3915 21.8558 40.948 21.7056C41.5044 21.5555 42.0476 21.3523 42.5776 21.0962V17.6249H40.1663C39.9366 17.6249 39.7555 17.5631 39.6231 17.4394C39.4994 17.3069 39.4376 17.1479 39.4376 16.9625V14.9486H45.7971ZM58.3784 17.3202L56.0466 10.9474C55.9317 10.6647 55.8125 10.3291 55.6888 9.94043C55.5652 9.55179 55.4415 9.13224 55.3179 8.68177C55.203 9.13224 55.0838 9.55621 54.9601 9.95368C54.8365 10.3423 54.7172 10.6824 54.6024 10.9739L52.2838 17.3202H58.3784ZM64.6717 24.5542H61.9159C61.6068 24.5542 61.355 24.4791 61.1607 24.329C60.9664 24.17 60.8207 23.9757 60.7235 23.746L59.2926 19.8375H51.3564L49.9255 23.746C49.8548 23.9492 49.7179 24.1346 49.5148 24.3025C49.3116 24.4703 49.0599 24.5542 48.7596 24.5542H45.9772L53.516 5.39599H57.1462L64.6717 24.5542ZM77.1348 21.6129V24.5542H65.9128V5.39599H69.4768V21.6129H77.1348ZM90.1595 21.6129V24.5542H78.9375V5.39599H82.5015V21.6129H90.1595ZM95.5395 8.2313V13.5442H102.244V16.2868H95.5395V21.7056H104.045V24.5542H91.9622V5.39599H104.045V8.2313H95.5395ZM112.252 14.5114C112.923 14.5114 113.506 14.4275 114.001 14.2596C114.504 14.0918 114.915 13.8622 115.233 13.5707C115.56 13.2704 115.803 12.9171 115.962 12.5108C116.121 12.1045 116.2 11.6584 116.2 11.1726C116.2 10.201 115.878 9.45463 115.233 8.9335C114.597 8.41237 113.621 8.1518 112.305 8.1518H110.026V14.5114H112.252ZM121.42 24.5542H118.201C117.591 24.5542 117.15 24.3157 116.876 23.8387L112.848 17.7044C112.698 17.4748 112.53 17.3114 112.345 17.2142C112.168 17.117 111.903 17.0685 111.55 17.0685H110.026V24.5542H106.462V5.39599H112.305C113.603 5.39599 114.716 5.5329 115.644 5.80671C116.58 6.07169 117.344 6.44708 117.936 6.93289C118.536 7.41869 118.978 8.00165 119.261 8.68177C119.543 9.35306 119.685 10.095 119.685 10.9076C119.685 11.5524 119.587 12.1619 119.393 12.736C119.208 13.3101 118.934 13.8313 118.572 14.2994C118.218 14.7675 117.777 15.1782 117.247 15.5316C116.726 15.8849 116.129 16.1631 115.458 16.3663C115.688 16.4987 115.9 16.6577 116.094 16.8432C116.288 17.0199 116.465 17.2319 116.624 17.4792L121.42 24.5542ZM130.095 17.1347V24.5542H126.544V17.1347L119.562 5.39599H122.702C123.011 5.39599 123.254 5.47107 123.431 5.62122C123.616 5.77138 123.771 5.96128 123.894 6.19094L127.392 12.5903C127.595 12.9701 127.772 13.3278 127.922 13.6634C128.081 13.9991 128.222 14.3347 128.346 14.6704C128.461 14.3347 128.593 13.9991 128.744 13.6634C128.894 13.3278 129.066 12.9701 129.26 12.5903L132.745 6.19094C132.842 5.99662 132.988 5.81554 133.182 5.64772C133.376 5.4799 133.624 5.39599 133.924 5.39599H137.077L130.095 17.1347ZM159.934 14.9751C159.934 16.3795 159.7 17.6691 159.232 18.8438C158.764 20.0186 158.106 21.0299 157.258 21.8779C156.41 22.7258 155.39 23.3839 154.197 23.852C153.005 24.3201 151.68 24.5542 150.223 24.5542H142.922V5.39599H150.223C151.68 5.39599 153.005 5.63447 154.197 6.11144C155.39 6.57958 156.41 7.23761 157.258 8.08556C158.106 8.92467 158.764 9.9316 159.232 11.1064C159.7 12.2811 159.934 13.5707 159.934 14.9751ZM156.278 14.9751C156.278 13.924 156.136 12.9833 155.854 12.153C155.58 11.3139 155.178 10.6073 154.648 10.0332C154.127 9.45022 153.491 9.00416 152.74 8.69502C151.998 8.38587 151.159 8.2313 150.223 8.2313H146.5V21.7189H150.223C151.159 21.7189 151.998 21.5643 152.74 21.2552C153.491 20.946 154.127 20.5044 154.648 19.9303C155.178 19.3473 155.58 18.6407 155.854 17.8104C156.136 16.9713 156.278 16.0262 156.278 14.9751ZM165.916 8.2313V13.5442H172.62V16.2868H165.916V21.7056H174.422V24.5542H162.339V5.39599H174.422V8.2313H165.916ZM187.04 8.8805C186.934 9.06599 186.819 9.2029 186.696 9.29123C186.581 9.37072 186.435 9.41047 186.259 9.41047C186.073 9.41047 185.87 9.34422 185.649 9.21173C185.437 9.07041 185.181 8.91584 184.881 8.74801C184.58 8.58019 184.227 8.43003 183.821 8.29754C183.423 8.15622 182.951 8.08556 182.403 8.08556C181.908 8.08556 181.476 8.14739 181.105 8.27105C180.734 8.38587 180.42 8.54928 180.164 8.76126C179.917 8.97325 179.731 9.2294 179.608 9.52971C179.484 9.82119 179.422 10.1436 179.422 10.4969C179.422 10.9474 179.546 11.3228 179.793 11.6231C180.049 11.9234 180.385 12.1795 180.8 12.3915C181.215 12.6035 181.688 12.7934 182.218 12.9612C182.748 13.1291 183.291 13.3101 183.847 13.5044C184.404 13.6899 184.947 13.9107 185.477 14.1669C186.007 14.4142 186.479 14.7322 186.895 15.1208C187.31 15.5006 187.641 15.9688 187.888 16.5252C188.144 17.0817 188.272 17.7574 188.272 18.5524C188.272 19.418 188.122 20.2306 187.822 20.9902C187.53 21.741 187.098 22.399 186.524 22.9643C185.958 23.5208 185.265 23.9624 184.443 24.2892C183.622 24.6072 182.681 24.7662 181.621 24.7662C181.012 24.7662 180.411 24.7044 179.82 24.5807C179.228 24.4659 178.658 24.298 178.11 24.0772C177.572 23.8564 177.064 23.5914 176.587 23.2823C176.11 22.9731 175.686 22.6287 175.315 22.2489L176.361 20.5397C176.45 20.4161 176.565 20.3145 176.706 20.235C176.847 20.1467 176.997 20.1025 177.156 20.1025C177.377 20.1025 177.616 20.1952 177.872 20.3807C178.128 20.5574 178.433 20.7561 178.786 20.9769C179.139 21.1978 179.55 21.4009 180.018 21.5864C180.495 21.7631 181.065 21.8514 181.727 21.8514C182.743 21.8514 183.529 21.6129 184.086 21.1359C184.642 20.6501 184.92 19.9568 184.92 19.0558C184.92 18.5524 184.792 18.1416 184.536 17.8237C184.289 17.5057 183.958 17.2407 183.543 17.0287C183.127 16.8079 182.655 16.6224 182.125 16.4722C181.595 16.3221 181.056 16.1587 180.508 15.982C179.961 15.8054 179.422 15.5934 178.892 15.3461C178.362 15.0988 177.89 14.7764 177.474 14.3789C177.059 13.9814 176.724 13.4868 176.467 12.895C176.22 12.2944 176.097 11.5568 176.097 10.6824C176.097 9.9846 176.233 9.30448 176.507 8.64202C176.79 7.97957 177.196 7.39219 177.726 6.87989C178.256 6.36759 178.91 5.95687 179.687 5.64772C180.464 5.33858 181.356 5.184 182.363 5.184C183.494 5.184 184.536 5.36066 185.49 5.71397C186.444 6.06728 187.257 6.56191 187.928 7.19787L187.04 8.8805ZM194.217 24.5542H190.639V5.39599H194.217V24.5542ZM213.557 14.9486V22.6993C212.586 23.4148 211.548 23.9403 210.444 24.276C209.348 24.6028 208.174 24.7662 206.919 24.7662C205.356 24.7662 203.938 24.5233 202.666 24.0375C201.403 23.5517 200.321 22.876 199.42 22.0104C198.528 21.1448 197.839 20.1113 197.353 18.9101C196.868 17.7088 196.625 16.3972 196.625 14.9751C196.625 13.5354 196.859 12.2149 197.327 11.0136C197.795 9.81236 198.458 8.77893 199.314 7.91332C200.18 7.04771 201.227 6.37642 202.454 5.89945C203.682 5.42249 205.06 5.184 206.588 5.184C207.365 5.184 208.09 5.24583 208.761 5.36949C209.441 5.49315 210.068 5.66539 210.642 5.88621C211.225 6.09819 211.755 6.35876 212.232 6.6679C212.709 6.97705 213.146 7.31711 213.544 7.68809L212.524 9.30448C212.365 9.56063 212.157 9.71961 211.901 9.78144C211.645 9.83444 211.367 9.76819 211.066 9.58271C210.775 9.41489 210.483 9.24706 210.192 9.07924C209.9 8.91142 209.574 8.76568 209.211 8.64202C208.858 8.51836 208.456 8.41679 208.006 8.33729C207.564 8.2578 207.052 8.21805 206.469 8.21805C205.524 8.21805 204.667 8.37704 203.899 8.69502C203.139 9.013 202.49 9.46788 201.951 10.0597C201.412 10.6515 200.997 11.3625 200.705 12.1928C200.414 13.0231 200.268 13.9505 200.268 14.9751C200.268 16.0704 200.423 17.0508 200.732 17.9164C201.05 18.7732 201.492 19.5019 202.057 20.1025C202.631 20.6943 203.32 21.1492 204.124 21.4672C204.928 21.7763 205.824 21.9309 206.813 21.9309C207.52 21.9309 208.151 21.8558 208.708 21.7056C209.264 21.5555 209.808 21.3523 210.338 21.0962V17.6249H207.926C207.697 17.6249 207.516 17.5631 207.383 17.4394C207.259 17.3069 207.198 17.1479 207.198 16.9625V14.9486H213.557ZM232.4 5.39599V24.5542H230.571C230.289 24.5542 230.05 24.51 229.856 24.4217C229.67 24.3245 229.489 24.1656 229.313 23.9447L219.31 11.1726C219.363 11.7556 219.389 12.2944 219.389 12.789V24.5542H216.249V5.39599H218.117C218.267 5.39599 218.395 5.40482 218.501 5.42249C218.616 5.43132 218.713 5.45782 218.793 5.50198C218.881 5.53731 218.965 5.59473 219.045 5.67422C219.124 5.74488 219.212 5.84204 219.31 5.9657L229.352 18.7908C229.326 18.4817 229.304 18.177 229.286 17.8766C229.268 17.5763 229.26 17.2981 229.26 17.042V5.39599H232.4Z" fill="white"/>
<path d="M236.12 5.59507V6H234.1V2.44013H234.58V5.59507H236.12ZM238.455 2.84506H237.302V6H236.822V2.84506H235.667V2.44013H238.455V2.84506ZM241.929 4.22131C241.929 4.48795 241.887 4.73057 241.802 4.94918C241.718 5.16779 241.599 5.35493 241.445 5.51061C241.291 5.66629 241.105 5.78719 240.888 5.87331C240.673 5.95777 240.434 6 240.173 6H238.844V2.44013H240.173C240.434 2.44013 240.673 2.48319 240.888 2.56931C241.105 2.65377 241.291 2.77467 241.445 2.932C241.599 3.08768 241.718 3.27482 241.802 3.49343C241.887 3.71204 241.929 3.95467 241.929 4.22131ZM241.435 4.22131C241.435 4.0027 241.405 3.80727 241.345 3.63503C241.286 3.4628 241.201 3.31706 241.092 3.19781C240.983 3.07857 240.85 2.98748 240.694 2.92455C240.539 2.86162 240.365 2.83015 240.173 2.83015H239.326V5.60998H240.173C240.365 5.60998 240.539 5.57851 240.694 5.51558C240.85 5.45265 240.983 5.36239 241.092 5.2448C241.201 5.12556 241.286 4.97982 241.345 4.80758C241.405 4.63534 241.435 4.43992 241.435 4.22131Z" fill="white"/>
<path d="M4.96338 15.945C4.96339 13.2316 7.163 11.032 9.87634 11.032H11.4218V14.5482H13.3383C15.235 14.5482 16.7726 13.0106 16.7726 11.1139C16.7726 9.21717 15.235 7.67955 13.3383 7.67955H11.4218V10.4243H10.4125C10.1533 10.4243 9.9432 10.2142 9.9432 9.955V6.20093H13.3383C16.0516 6.20093 18.2512 8.40055 18.2512 11.1139C18.2512 13.8272 16.0516 16.0269 13.3383 16.0269H9.9432V12.5106H9.87634C7.97963 12.5106 6.44201 14.0483 6.442 15.945C6.442 17.8417 7.97962 19.3793 9.87634 19.3793H12.2196V17.1037C12.2196 16.8446 12.4297 16.6345 12.6889 16.6345H13.6982V20.8579H9.87634C7.163 20.8579 4.96338 18.6583 4.96338 15.945Z" fill="white"/>
<circle cx="11.5333" cy="13.6031" r="10.9467" stroke="#F4EFE3" stroke-width="1.17313"/>
</svg>