<svg width="770" height="116" viewBox="0 0 770 116" fill="none" xmlns="http://www.w3.org/2000/svg">
<path d="M24.9522 69.7533C24.9523 56.1128 36.0101 45.0549 49.6506 45.0549H57.42V62.7315H67.0543C76.5895 62.7315 84.3193 55.0016 84.3194 45.4665C84.3194 35.9313 76.5895 28.2014 67.0543 28.2014H57.42V41.9995H52.3457C51.0429 41.9995 49.9867 40.9433 49.9867 39.6405V20.7681H67.0543C80.6948 20.7681 91.7527 31.826 91.7527 45.4665C91.7527 59.1069 80.6948 70.1648 67.0543 70.1648H49.9867V52.4882H49.6506C40.1154 52.4882 32.3856 60.2181 32.3855 69.7533C32.3855 79.2884 40.1154 87.0183 49.6506 87.0183H61.4307V75.5785C61.4307 74.2757 62.4869 73.2195 63.7897 73.2195H68.864V94.4517H49.6506C36.0101 94.4517 24.9522 83.3937 24.9522 69.7533Z" fill="black"/>
<circle cx="57.98" cy="57.98" r="55.0312" stroke="black" stroke-width="5.89754"/>
<path d="M185.235 64.8233V87.8578C182.347 89.9841 179.263 91.546 175.981 92.5435C172.726 93.5147 169.235 94.0004 165.508 94.0004C160.861 94.0004 156.648 93.2785 152.868 91.8347C149.114 90.391 145.899 88.3828 143.221 85.8103C140.57 83.2378 138.523 80.1665 137.079 76.5965C135.635 73.0265 134.913 69.1283 134.913 64.9021C134.913 60.6233 135.609 56.6989 137 53.1289C138.391 49.5588 140.36 46.4876 142.906 43.915C145.479 41.3425 148.589 39.3475 152.238 37.93C155.887 36.5125 159.982 35.8037 164.523 35.8037C166.833 35.8037 168.986 35.9875 170.981 36.355C173.002 36.7225 174.866 37.2344 176.572 37.8906C178.305 38.5206 179.88 39.295 181.297 40.2138C182.715 41.1325 184.014 42.1432 185.195 43.2457L182.163 48.0495C181.691 48.8107 181.074 49.2832 180.313 49.467C179.552 49.6245 178.725 49.4276 177.832 48.8763C176.966 48.3776 176.1 47.8788 175.233 47.3801C174.367 46.8813 173.396 46.4482 172.32 46.0807C171.27 45.7132 170.075 45.4113 168.736 45.1751C167.424 44.9388 165.901 44.8207 164.169 44.8207C161.36 44.8207 158.814 45.2932 156.53 46.2382C154.273 47.1832 152.343 48.5351 150.742 50.2938C149.141 52.0526 147.907 54.1657 147.041 56.6333C146.174 59.1008 145.741 61.857 145.741 64.9021C145.741 68.1571 146.201 71.0708 147.119 73.6434C148.064 76.1896 149.377 78.3553 151.057 80.1403C152.763 81.899 154.811 83.2509 157.199 84.1959C159.588 85.1147 162.253 85.5741 165.193 85.5741C167.293 85.5741 169.17 85.3509 170.823 84.9047C172.477 84.4584 174.091 83.8547 175.666 83.0934V72.7771H168.5C167.818 72.7771 167.28 72.5934 166.886 72.2259C166.518 71.8321 166.335 71.3596 166.335 70.8083V64.8233H185.235ZM222.625 71.8715L215.695 52.932C215.354 52.092 214.999 51.0945 214.632 49.9395C214.264 48.7845 213.897 47.5376 213.529 46.1988C213.188 47.5376 212.834 48.7976 212.466 49.9788C212.099 51.1338 211.744 52.1445 211.403 53.0107L204.513 71.8715H222.625ZM241.328 93.3704H233.138C232.22 93.3704 231.471 93.1472 230.894 92.701C230.316 92.2285 229.883 91.651 229.595 90.9685L225.342 79.3528H201.756L197.504 90.9685C197.294 91.5722 196.887 92.1235 196.283 92.6222C195.679 93.121 194.931 93.3704 194.039 93.3704H185.77L208.174 36.4337H218.963L241.328 93.3704ZM278.368 84.6291V93.3704H245.017V36.4337H255.609V84.6291H278.368ZM317.076 84.6291V93.3704H283.725V36.4337H294.317V84.6291H317.076ZM333.065 44.8601V60.6495H352.989V68.8002H333.065V84.9047H358.344V93.3704H322.433V36.4337H358.344V44.8601H333.065ZM382.732 63.5239C384.727 63.5239 386.46 63.2745 387.93 62.7758C389.426 62.277 390.647 61.5945 391.592 60.7283C392.563 59.8358 393.285 58.7858 393.757 57.5783C394.23 56.3708 394.466 55.0451 394.466 53.6014C394.466 50.7138 393.508 48.4957 391.592 46.9469C389.702 45.3982 386.801 44.6238 382.89 44.6238H376.117V63.5239H382.732ZM409.98 93.3704H400.412C398.601 93.3704 397.288 92.6616 396.474 91.2441L384.504 73.0134C384.058 72.3309 383.559 71.8452 383.008 71.5565C382.483 71.2677 381.695 71.1233 380.645 71.1233H376.117V93.3704H365.525V36.4337H382.89C386.749 36.4337 390.056 36.8406 392.812 37.6544C395.595 38.4419 397.866 39.5575 399.624 41.0013C401.409 42.445 402.722 44.1775 403.562 46.1988C404.402 48.1938 404.822 50.3988 404.822 52.8139C404.822 54.7301 404.533 56.5414 403.956 58.2476C403.404 59.9539 402.591 61.5027 401.514 62.8939C400.464 64.2852 399.152 65.5058 397.577 66.5558C396.028 67.6058 394.256 68.4327 392.261 69.0365C392.944 69.4302 393.574 69.9027 394.151 70.454C394.729 70.979 395.254 71.609 395.726 72.344L409.98 93.3704ZM435.761 71.3202V93.3704H425.208V71.3202L404.458 36.4337H413.79C414.708 36.4337 415.43 36.6569 415.955 37.1031C416.506 37.5494 416.966 38.1138 417.333 38.7963L427.728 57.8145C428.332 58.9433 428.857 60.0064 429.303 61.0039C429.776 62.0014 430.196 62.9989 430.563 63.9964C430.905 62.9989 431.298 62.0014 431.745 61.0039C432.191 60.0064 432.703 58.9433 433.28 57.8145L443.636 38.7963C443.925 38.2188 444.358 37.6806 444.935 37.1819C445.513 36.6831 446.248 36.4337 447.14 36.4337H456.512L435.761 71.3202ZM524.441 64.9021C524.441 69.0758 523.745 72.9084 522.354 76.3996C520.963 79.8909 519.007 82.8965 516.487 85.4166C513.967 87.9366 510.935 89.8922 507.391 91.2835C503.847 92.6747 499.91 93.3704 495.579 93.3704H473.883V36.4337H495.579C499.91 36.4337 503.847 37.1425 507.391 38.56C510.935 39.9513 513.967 41.9069 516.487 44.4269C519.007 46.9207 520.963 49.9132 522.354 53.4045C523.745 56.8958 524.441 60.7283 524.441 64.9021ZM513.573 64.9021C513.573 61.7783 513.153 58.9826 512.313 56.5151C511.499 54.0214 510.305 51.9213 508.73 50.2151C507.181 48.4826 505.291 47.1569 503.06 46.2382C500.855 45.3194 498.361 44.8601 495.579 44.8601H484.514V84.9441H495.579C498.361 84.9441 500.855 84.4847 503.06 83.5659C505.291 82.6472 507.181 81.3347 508.73 79.6284C510.305 77.8959 511.499 75.7959 512.313 73.3284C513.153 70.8346 513.573 68.0258 513.573 64.9021ZM542.218 44.8601V60.6495H562.142V68.8002H542.218V84.9047H567.497V93.3704H531.587V36.4337H567.497V44.8601H542.218ZM604.998 46.7894C604.683 47.3407 604.341 47.7476 603.974 48.0101C603.633 48.2463 603.199 48.3645 602.674 48.3645C602.123 48.3645 601.519 48.1676 600.863 47.7738C600.233 47.3538 599.472 46.8944 598.579 46.3957C597.687 45.8969 596.637 45.4507 595.429 45.0569C594.248 44.6369 592.844 44.4269 591.216 44.4269C589.746 44.4269 588.46 44.6107 587.357 44.9782C586.255 45.3194 585.323 45.8051 584.562 46.4351C583.827 47.0651 583.276 47.8263 582.908 48.7188C582.541 49.5851 582.357 50.5432 582.357 51.5932C582.357 52.932 582.724 54.0476 583.459 54.9401C584.221 55.8326 585.218 56.5939 586.452 57.2239C587.686 57.8539 589.09 58.4183 590.665 58.917C592.24 59.4158 593.854 59.9539 595.508 60.5314C597.162 61.0827 598.776 61.7389 600.351 62.5002C601.926 63.2352 603.331 64.1802 604.564 65.3352C605.798 66.4639 606.783 67.8552 607.518 69.509C608.279 71.1627 608.659 73.1709 608.659 75.5334C608.659 78.1059 608.213 80.5209 607.321 82.7784C606.454 85.0097 605.168 86.9653 603.462 88.6453C601.782 90.2991 599.721 91.6116 597.28 92.5829C594.839 93.5279 592.043 94.0004 588.893 94.0004C587.082 94.0004 585.297 93.8166 583.538 93.4491C581.779 93.1079 580.086 92.6091 578.459 91.9529C576.857 91.2966 575.348 90.5091 573.931 89.5903C572.513 88.6716 571.253 87.6478 570.15 86.5191L573.261 81.4397C573.524 81.0722 573.865 80.7703 574.285 80.534C574.705 80.2715 575.151 80.1403 575.624 80.1403C576.28 80.1403 576.989 80.4159 577.75 80.9672C578.511 81.4922 579.417 82.0828 580.467 82.739C581.517 83.3953 582.737 83.9991 584.129 84.5503C585.546 85.0753 587.239 85.3378 589.208 85.3378C592.227 85.3378 594.563 84.6291 596.217 83.2115C597.871 81.7678 598.698 79.7071 598.698 77.0296C598.698 75.5334 598.317 74.3127 597.556 73.3677C596.821 72.4227 595.836 71.6352 594.603 71.0052C593.369 70.349 591.964 69.7977 590.389 69.3515C588.814 68.9052 587.213 68.4196 585.586 67.8946C583.958 67.3696 582.357 66.7396 580.782 66.0046C579.207 65.2696 577.802 64.3114 576.569 63.1302C575.335 61.9489 574.337 60.4789 573.576 58.7201C572.841 56.9351 572.474 54.7432 572.474 52.1445C572.474 50.0707 572.881 48.0494 573.694 46.0807C574.534 44.1119 575.742 42.3663 577.317 40.8438C578.892 39.3213 580.834 38.1006 583.144 37.1819C585.454 36.2631 588.106 35.8037 591.098 35.8037C594.458 35.8037 597.556 36.3288 600.391 37.3788C603.226 38.4288 605.641 39.8988 607.636 41.7888L604.998 46.7894ZM626.325 93.3704H615.694V36.4337H626.325V93.3704ZM683.803 64.8233V87.8578C680.916 89.9841 677.832 91.546 674.55 92.5435C671.295 93.5147 667.804 94.0004 664.076 94.0004C659.43 94.0004 655.217 93.2785 651.437 91.8347C647.683 90.391 644.468 88.3828 641.79 85.8103C639.139 83.2378 637.091 80.1665 635.648 76.5965C634.204 73.0265 633.482 69.1283 633.482 64.9021C633.482 60.6233 634.178 56.6989 635.569 53.1289C636.96 49.5588 638.929 46.4876 641.475 43.915C644.048 41.3425 647.158 39.3475 650.807 37.93C654.456 36.5125 658.551 35.8037 663.092 35.8037C665.402 35.8037 667.555 35.9875 669.55 36.355C671.571 36.7225 673.435 37.2344 675.141 37.8906C676.873 38.5206 678.448 39.295 679.866 40.2138C681.283 41.1325 682.583 42.1432 683.764 43.2457L680.732 48.0495C680.26 48.8107 679.643 49.2832 678.882 49.467C678.12 49.6245 677.293 49.4276 676.401 48.8763C675.535 48.3776 674.668 47.8788 673.802 47.3801C672.936 46.8813 671.965 46.4482 670.888 46.0807C669.838 45.7132 668.644 45.4113 667.305 45.1751C665.993 44.9388 664.47 44.8207 662.738 44.8207C659.929 44.8207 657.383 45.2932 655.099 46.2382C652.841 47.1832 650.912 48.5351 649.311 50.2938C647.709 52.0526 646.476 54.1657 645.609 56.6333C644.743 59.1008 644.31 61.857 644.31 64.9021C644.31 68.1571 644.769 71.0708 645.688 73.6434C646.633 76.1896 647.946 78.3553 649.626 80.1403C651.332 81.899 653.38 83.2509 655.768 84.1959C658.157 85.1147 660.821 85.5741 663.761 85.5741C665.861 85.5741 667.738 85.3509 669.392 84.9047C671.046 84.4584 672.66 83.8547 674.235 83.0934V72.7771H667.069C666.386 72.7771 665.848 72.5934 665.455 72.2259C665.087 71.8321 664.903 71.3596 664.903 70.8083V64.8233H683.803ZM739.802 36.4337V93.3704H734.368C733.528 93.3704 732.819 93.2391 732.242 92.9766C731.691 92.6879 731.152 92.2154 730.627 91.5591L700.899 53.6014C701.057 55.3339 701.135 56.9351 701.135 58.4051V93.3704H691.803V36.4337H697.355C697.802 36.4337 698.182 36.46 698.497 36.5125C698.838 36.5387 699.127 36.6175 699.363 36.7488C699.626 36.8538 699.875 37.0244 700.112 37.2606C700.348 37.4706 700.61 37.7594 700.899 38.1269L730.746 76.2421C730.667 75.3234 730.601 74.4177 730.549 73.5252C730.496 72.6327 730.47 71.8058 730.47 71.0446V36.4337H739.802Z" fill="black"/>
<path d="M750.858 36.632V37.8354H744.856V27.2558H746.281V36.632H750.858ZM757.797 28.4592H754.371V37.8354H752.946V28.4592H749.513V27.2558H757.797V28.4592ZM768.123 32.5493C768.123 33.3417 767.997 34.0628 767.746 34.7125C767.495 35.3622 767.141 35.9184 766.683 36.381C766.225 36.8437 765.674 37.203 765.029 37.4589C764.389 37.7099 763.681 37.8354 762.903 37.8354H758.953V27.2558H762.903C763.681 27.2558 764.389 27.3838 765.029 27.6397C765.674 27.8907 766.225 28.25 766.683 28.7176C767.141 29.1803 767.495 29.7365 767.746 30.3861C767.997 31.0358 768.123 31.7569 768.123 32.5493ZM766.653 32.5493C766.653 31.8996 766.565 31.3188 766.388 30.807C766.21 30.2951 765.959 29.862 765.635 29.5076C765.31 29.1532 764.916 28.8825 764.453 28.6955C763.991 28.5084 763.474 28.4149 762.903 28.4149H760.385V36.6763H762.903C763.474 36.6763 763.991 36.5828 764.453 36.3958C764.916 36.2088 765.31 35.9405 765.635 35.5911C765.959 35.2367 766.21 34.8036 766.388 34.2917C766.565 33.7798 766.653 33.199 766.653 32.5493Z" fill="black"/>
</svg>
